<svg height="20" viewBox="0 0 22.114 20" width="22.114" xmlns="http://www.w3.org/2000/svg"><path d="m6.39 20h9.333a1.333 1.333 0 0 0 1.333-1.333v-11.058l1.057 1.057a1.364 1.364 0 0 0 1.885 0l1.724-1.724a1.333 1.333 0 0 0 0-1.885l-4.47-4.472a1.987 1.987 0 0 0 -1.414-.585h-9.562a1.987 1.987 0 0 0 -1.414.585l-4.472 4.472a1.333 1.333 0 0 0 0 1.885l1.724 1.725a1.364 1.364 0 0 0 1.886 0l1.057-1.058v11.058a1.333 1.333 0 0 0 1.333 1.333zm6.544-18.667a1.988 1.988 0 0 1 -3.755 0zm-9.877 6.391-1.724-1.724 4.472-4.472a.667.667 0 0 1 .471-.195h1.516a3.333 3.333 0 0 0 6.533 0h1.516a.667.667 0 0 1 .471.195l4.469 4.472-1.724 1.724-2.195-2.2a.667.667 0 0 0 -1.138.476v12.667h-9.334v-12.667a.667.667 0 0 0 -1.139-.472z" fill="#393d46"/></svg>