<svg width="25" height="25" viewBox="0 0 25 25" fill="none" xmlns="http://www.w3.org/2000/svg">
  <g clip-path="url(#clip0_79_103)">
    <path d="M13.009 5.29333C9.52606 5.29333 6.69359 8.12556 6.69232 11.607C6.69182 12.8001 7.02566 13.9619 7.6576 14.9672L7.80767 15.206L7.16989 17.536L9.55953 16.9092L9.7902 17.0461C10.7595 17.6215 11.8708 17.9257 13.0039 17.9262H13.0065C16.4866 17.9262 19.3191 15.0937 19.3206 11.612C19.3213 9.92481 18.6651 8.33849 17.4729 7.14506C16.2808 5.95139 14.6954 5.29384 13.009 5.29333ZM16.7231 14.3216C16.5649 14.7649 15.8065 15.1697 15.442 15.224C15.115 15.2729 14.701 15.2932 14.2465 15.1487C13.971 15.0612 13.6174 14.9444 13.1644 14.7489C11.2599 13.9269 10.0163 12.0095 9.92151 11.883C9.8267 11.7563 9.14634 10.8538 9.14634 9.91949C9.14634 8.98513 9.63659 8.52607 9.81073 8.33595C9.98462 8.14584 10.1905 8.09843 10.3169 8.09843C10.4434 8.09843 10.5702 8.0997 10.6807 8.10502C10.7973 8.11085 10.9537 8.06092 11.1078 8.43076C11.266 8.81099 11.6457 9.74509 11.6931 9.84015C11.7405 9.93521 11.7722 10.046 11.7089 10.1727C11.6455 10.2992 11.614 10.3786 11.519 10.4893C11.4239 10.6001 11.3197 10.7367 11.2343 10.8219C11.1393 10.9165 11.0404 11.0194 11.1512 11.2092C11.262 11.3994 11.6429 12.0209 12.2072 12.5241C12.9322 13.1707 13.5438 13.3712 13.7337 13.4663C13.9236 13.5614 14.0343 13.5454 14.1449 13.4189C14.2556 13.2921 14.6194 12.8645 14.7459 12.6747C14.8724 12.4848 14.9989 12.5162 15.173 12.5796C15.3469 12.643 16.2803 13.102 16.4701 13.1971C16.66 13.2921 16.7865 13.3396 16.8339 13.4189C16.8813 13.498 16.8813 13.8782 16.7231 14.3216Z" fill="white"/>
    <path d="M12.5 0C5.59651 0 0 5.59651 0 12.5C0 19.4035 5.59651 25 12.5 25C19.4035 25 25 19.4035 25 12.5C25 5.59651 19.4035 0 12.5 0ZM13.0065 19.2091C13.0062 19.2091 13.0067 19.2091 13.0065 19.2091H13.0034C11.7319 19.2086 10.4827 18.8897 9.37323 18.2843L5.34606 19.3409L6.42389 15.4042C5.75899 14.2521 5.40918 12.9451 5.40994 11.6065C5.41121 7.41782 8.81936 4.01018 13.0065 4.01018C15.0387 4.01094 16.9462 4.80208 18.3804 6.23809C19.8147 7.67384 20.6043 9.58261 20.6033 11.6125C20.6015 15.8012 17.1933 19.2091 13.0065 19.2091Z" fill="white"/>
  </g>
  <defs>
    <clipPath id="clip0_79_103">
      <rect width="25" height="25" fill="white"/>
    </clipPath>
  </defs>
</svg>
